# xmcd
#
# Track frame offsets: 
#        150
#        32862
#        57064
#        75180
#        90609
#        107037
#        124572
#        146192
#        169753
#        185793
#        215295
#        227933
#        245136
#
# Disc length: 3601 seconds
#
# Revision: 0
# Processed by: cddbd v1.5.2PL0 Copyright (c) Steve Scherf et al.
# Submitted via: ExactAudioCopy v0.95a5
#
DISCID=b20e0f0d
DTITLE=刘英 - 正月十五闹花灯
DYEAR=1900
DGENRE=Folk
TTITLE0=一枝花
TTITLE1=渔歌
TTITLE2=祖国的好山河寸土不让
TTITLE3=凤阳歌绞八板
TTITLE4=七品芝麻官
TTITLE5=湖边孔雀
TTITLE6=红旗渠上红旗飘
TTITLE7=绿水谣
TTITLE8=五字开门
TTITLE9=路遇
TTITLE10=打枣
TTITLE11=山东大鼓
TTITLE12=正月十五闹花灯
EXTD=
EXTT0=
EXTT1=
EXTT2=
EXTT3=
EXTT4=
EXTT5=
EXTT6=
EXTT7=
EXTT8=
EXTT9=
EXTT10=
EXTT11=
EXTT12=
PLAYORDER=
